solid Created by writeSTL.m 14-Nov-2018 10:57:12
facet normal -3.9354252250196353E-01 8.3081199194858946E-01 3.9354252250196320E-01
outer loop
vertex 0.0000000000000000E+00 2.0000000000000000E+00 4.0000000000000000E+00
vertex 6.4406779661016944E-01 2.3050847457627119E+00 4.0000000000000000E+00
vertex 0.0000000000000000E+00 2.3050847457627119E+00 3.3559322033898300E+00
endloop
endfacet
facet normal -3.9703201337447047E-01 8.2748484017027701E-01 3.9703201337447014E-01
outer loop
vertex 6.4406779661016944E-01 2.3050847457627119E+00 4.0000000000000000E+00
vertex 7.0436453472412841E-01 2.6719736480922314E+00 3.2956354652758719E+00
vertex 0.0000000000000000E+00 2.3050847457627119E+00 3.3559322033898300E+00
endloop
endfacet
facet normal -4.1134243327278774E-01 8.4561676969891231E-01 3.4019065447657304E-01
outer loop
vertex 0.0000000000000000E+00 2.3050847457627119E+00 3.3559322033898300E+00
vertex 7.0436453472412841E-01 2.6719736480922314E+00 3.2956354652758719E+00
vertex 0.0000000000000000E+00 2.4848484848484844E+00 2.9090909090909087E+00
endloop
endfacet
facet normal -4.1389476839151002E-01 8.4170388937264751E-01 3.4673575430447939E-01
outer loop
vertex 7.0436453472412841E-01 2.6719736480922314E+00 3.2956354652758719E+00
vertex 7.3744619799139155E-01 2.8732663797226206E+00 2.8464849354375898E+00
vertex 0.0000000000000000E+00 2.4848484848484844E+00 2.9090909090909087E+00
endloop
endfacet
facet normal -4.3144293220051183E-01 8.6201627023879890E-01 2.6605440439469236E-01
outer loop
vertex 0.0000000000000000E+00 2.4848484848484844E+00 2.9090909090909087E+00
vertex 7.3744619799139155E-01 2.8732663797226206E+00 2.8464849354375898E+00
vertex 0.0000000000000000E+00 2.5915492957746480E+00 2.5633802816901405E+00
endloop
endfacet
facet normal -4.3318275810064027E-01 8.5867717333691107E-01 2.7390912740260165E-01
outer loop
vertex 7.3744619799139155E-01 2.8732663797226206E+00 2.8464849354375898E+00
vertex 7.5629516093715754E-01 2.9879570834245670E+00 2.5167506021458288E+00
vertex 0.0000000000000000E+00 2.5915492957746480E+00 2.5633802816901405E+00
endloop
endfacet
facet normal -4.4913109740066520E-01 8.7698051776343355E-01 1.7084036060326624E-01
outer loop
vertex 0.0000000000000000E+00 2.5915492957746480E+00 2.5633802816901405E+00
vertex 7.5629516093715754E-01 2.9879570834245670E+00 2.5167506021458288E+00
vertex 0.0000000000000000E+00 2.6486486486486487E+00 2.2702702702702702E+00
endloop
endfacet
facet normal -4.5039426703641516E-01 8.7502703744668409E-01 1.7740543384578075E-01
outer loop
vertex 7.5629516093715754E-01 2.9879570834245670E+00 2.5167506021458288E+00
vertex 7.6615256356815331E-01 3.0479366402667774E+00 2.2459358065860773E+00
vertex 0.0000000000000000E+00 2.6486486486486487E+00 2.2702702702702702E+00
endloop
endfacet
facet normal -4.5987924300584326E-01 8.8601472604270537E-01 5.9067648402846444E-02
outer loop
vertex 0.0000000000000000E+00 2.6486486486486487E+00 2.2702702702702702E+00
vertex 7.6615256356815331E-01 3.0479366402667774E+00 2.2459358065860773E+00
vertex 0.0000000000000000E+00 2.6666666666666665E+00 2.0000000000000000E+00
endloop
endfacet
facet normal -4.6047440257030603E-01 8.8552769725058855E-01 6.1676753964437558E-02
outer loop
vertex 7.6615256356815331E-01 3.0479366402667774E+00 2.2459358065860773E+00
vertex 7.6923076923076905E-01 3.0666666666666664E+00 2.0000000000000000E+00
vertex 0.0000000000000000E+00 2.6666666666666665E+00 2.0000000000000000E+00
endloop
endfacet
facet normal -4.6054783575916580E-01 8.8566891492147271E-01 -5.9044594328097603E-02
outer loop
vertex 0.0000000000000000E+00 2.6666666666666665E+00 2.0000000000000000E+00
vertex 7.6923076923076905E-01 3.0666666666666664E+00 2.0000000000000000E+00
vertex 0.0000000000000000E+00 2.6486486486486487E+00 1.7297297297297298E+00
endloop
endfacet
facet normal -4.5973904308846963E-01 8.8590704352278704E-01 -6.1714848268573458E-02
outer loop
vertex 7.6923076923076905E-01 3.0666666666666664E+00 2.0000000000000000E+00
vertex 7.6615256356815331E-01 3.0479366402667774E+00 1.7540641934139223E+00
vertex 0.0000000000000000E+00 2.6486486486486487E+00 1.7297297297297298E+00
endloop
endfacet
facet normal -4.5111529599126082E-01 8.7599878406820941E-01 -1.7064911377952113E-01
outer loop
vertex 0.0000000000000000E+00 2.6486486486486487E+00 1.7297297297297298E+00
vertex 7.6615256356815331E-01 3.0479366402667774E+00 1.7540641934139223E+00
vertex 0.0000000000000000E+00 2.5915492957746480E+00 1.4366197183098592E+00
endloop
endfacet
facet normal -4.4823189804529140E-01 8.7607374211897626E-01 -1.7771596423610544E-01
outer loop
vertex 7.6615256356815331E-01 3.0479366402667774E+00 1.7540641934139223E+00
vertex 7.5629516093715776E-01 2.9879570834245675E+00 1.4832493978541714E+00
vertex 0.0000000000000000E+00 2.5915492957746480E+00 1.4366197183098592E+00
endloop
endfacet
facet normal -4.3466910738145725E-01 8.6053521029550295E-01 -2.6559728712824177E-01
outer loop
vertex 0.0000000000000000E+00 2.5915492957746480E+00 1.4366197183098592E+00
vertex 7.5629516093715776E-01 2.9879570834245675E+00 1.4832493978541714E+00
vertex 0.0000000000000000E+00 2.4848484848484849E+00 1.0909090909090908E+00
endloop
endfacet
facet normal -4.2974497263530853E-01 8.6017418465688000E-01 -2.7462634714198386E-01
outer loop
vertex 7.5629516093715776E-01 2.9879570834245675E+00 1.4832493978541714E+00
vertex 7.3744619799139166E-01 2.8732663797226206E+00 1.1535150645624104E+00
vertex 0.0000000000000000E+00 2.4848484848484849E+00 1.0909090909090908E+00
endloop
endfacet
facet normal -4.1562305921145942E-01 8.4381330980741198E-01 -3.3946512463516543E-01
outer loop
vertex 0.0000000000000000E+00 2.4848484848484849E+00 1.0909090909090908E+00
vertex 7.3744619799139166E-01 2.8732663797226206E+00 1.1535150645624104E+00
vertex 0.0000000000000000E+00 2.3050847457627119E+00 6.4406779661016922E-01
endloop
endfacet
facet normal -4.0953100762833283E-01 8.4339195521788801E-01 -3.4781369102533938E-01
outer loop
vertex 7.3744619799139166E-01 2.8732663797226206E+00 1.1535150645624104E+00
vertex 7.0436453472412830E-01 2.6719736480922318E+00 7.0436453472412852E-01
vertex 0.0000000000000000E+00 2.3050847457627119E+00 6.4406779661016922E-01
endloop
endfacet
facet normal -3.9819344213685881E-01 8.2900004603042177E-01 -3.9268423233020006E-01
outer loop
vertex 0.0000000000000000E+00 2.3050847457627119E+00 6.4406779661016922E-01
vertex 7.0436453472412830E-01 2.6719736480922318E+00 7.0436453472412852E-01
vertex 0.0000000000000000E+00 2.0000000000000000E+00 0.0000000000000000E+00
endloop
endfacet
facet normal -3.9268423233019994E-01 8.2900004603042188E-01 -3.9819344213685903E-01
outer loop
vertex 7.0436453472412830E-01 2.6719736480922318E+00 7.0436453472412852E-01
vertex 6.4406779661016944E-01 2.3050847457627119E+00 0.0000000000000000E+00
vertex 0.0000000000000000E+00 2.0000000000000000E+00 0.0000000000000000E+00
endloop
endfacet
facet normal -3.4019065447657298E-01 8.4561676969891220E-01 4.1134243327278763E-01
outer loop
vertex 6.4406779661016944E-01 2.3050847457627119E+00 4.0000000000000000E+00
vertex 1.0909090909090908E+00 2.4848484848484844E+00 4.0000000000000000E+00
vertex 7.0436453472412841E-01 2.6719736480922314E+00 3.2956354652758719E+00
endloop
endfacet
facet normal -3.4673575430447784E-01 8.4170388937264862E-01 4.1389476839150924E-01
outer loop
vertex 1.0909090909090908E+00 2.4848484848484844E+00 4.0000000000000000E+00
vertex 1.1535150645624102E+00 2.8732663797226197E+00 3.2625538020086080E+00
vertex 7.0436453472412841E-01 2.6719736480922314E+00 3.2956354652758719E+00
endloop
endfacet
facet normal -3.5945966511657002E-01 8.6114894083925186E-01 3.5945966511657229E-01
outer loop
vertex 7.0436453472412841E-01 2.6719736480922314E+00 3.2956354652758719E+00
vertex 1.1535150645624102E+00 2.8732663797226197E+00 3.2625538020086080E+00
vertex 7.3744619799139155E-01 2.8732663797226206E+00 2.8464849354375898E+00
endloop
endfacet
facet normal -3.6414611091351801E-01 8.5720197142395693E-01 3.6414611091352028E-01
outer loop
vertex 1.1535150645624102E+00 2.8732663797226197E+00 3.2625538020086080E+00
vertex 1.1865242399342646E+00 3.0780608052588327E+00 2.8134757600657361E+00
vertex 7.3744619799139155E-01 2.8732663797226206E+00 2.8464849354375898E+00
endloop
endfacet
facet normal -3.8041600070781045E-01 8.8001695921254008E-01 2.8434805767543059E-01
outer loop
vertex 7.3744619799139155E-01 2.8732663797226206E+00 2.8464849354375898E+00
vertex 1.1865242399342646E+00 3.0780608052588327E+00 2.8134757600657361E+00
vertex 7.5629516093715754E-01 2.9879570834245670E+00 2.5167506021458288E+00
endloop
endfacet
facet normal -3.8367178745584285E-01 8.7673108102704522E-01 2.9006649422431957E-01
outer loop
vertex 1.1865242399342646E+00 3.0780608052588327E+00 2.8134757600657361E+00
vertex 1.2049272116461365E+00 3.1922359089212389E+00 2.4927211646136618E+00
vertex 7.5629516093715754E-01 2.9879570834245670E+00 2.5167506021458288E+00
endloop
endfacet
facet normal -3.9909592363566831E-01 8.9817551633758841E-01 1.8439952708480409E-01
outer loop
vertex 7.5629516093715754E-01 2.9879570834245670E+00 2.5167506021458288E+00
vertex 1.2049272116461365E+00 3.1922359089212389E+00 2.4927211646136618E+00
vertex 7.6615256356815331E-01 3.0479366402667774E+00 2.2459358065860773E+00
endloop
endfacet
facet normal -4.0120906239648824E-01 8.9621140713705549E-01 1.8930505003393217E-01
outer loop
vertex 1.2049272116461365E+00 3.1922359089212389E+00 2.4927211646136618E+00
vertex 1.2144373673036095E+00 3.2512384996461434E+00 2.2335456475583868E+00
vertex 7.6615256356815331E-01 3.0479366402667774E+00 2.2459358065860773E+00
endloop
endfacet
facet normal -4.1070095354051545E-01 9.0951225254672052E-01 6.4126353617697945E-02
outer loop
vertex 7.6615256356815331E-01 3.0479366402667774E+00 2.2459358065860773E+00
vertex 1.2144373673036095E+00 3.2512384996461434E+00 2.2335456475583868E+00
vertex 7.6923076923076905E-01 3.0666666666666664E+00 2.0000000000000000E+00
endloop
endfacet
facet normal -4.1153390865136291E-01 9.0899247954861340E-01 6.6124988878605601E-02
outer loop
vertex 1.2144373673036095E+00 3.2512384996461434E+00 2.2335456475583868E+00
vertex 1.2173913043478262E+00 3.2695652173913046E+00 2.0000000000000000E+00
vertex 7.6923076923076905E-01 3.0666666666666664E+00 2.0000000000000000E+00
endloop
endfacet
facet normal -4.1158880517144997E-01 9.0911373449957467E-01 -6.4084890588774410E-02
outer loop
vertex 7.6923076923076905E-01 3.0666666666666664E+00 2.0000000000000000E+00
vertex 1.2173913043478262E+00 3.2695652173913046E+00 2.0000000000000000E+00
vertex 7.6615256356815331E-01 3.0479366402667774E+00 1.7540641934139223E+00
endloop
endfacet
facet normal -4.1059897656715760E-01 9.0941192396922510E-01 -6.6169728612070836E-02
outer loop
vertex 1.2173913043478262E+00 3.2695652173913046E+00 2.0000000000000000E+00
vertex 1.2144373673036095E+00 3.2512384996461434E+00 1.7664543524416136E+00
vertex 7.6615256356815331E-01 3.0479366402667774E+00 1.7540641934139223E+00
endloop
endfacet
facet normal -4.0174147885818995E-01 8.9706558058869912E-01 -1.8405740487112918E-01
outer loop
vertex 7.6615256356815331E-01 3.0479366402667774E+00 1.7540641934139223E+00
vertex 1.2144373673036095E+00 3.2512384996461434E+00 1.7664543524416136E+00
vertex 7.5629516093715776E-01 2.9879570834245675E+00 1.4832493978541714E+00
endloop
endfacet
facet normal -3.9844532994761722E-01 8.9736660262537071E-01 -1.8966944808148292E-01
outer loop
vertex 1.2144373673036095E+00 3.2512384996461434E+00 1.7664543524416136E+00
vertex 1.2049272116461367E+00 3.1922359089212398E+00 1.5072788353863382E+00
vertex 7.5629516093715776E-01 2.9879570834245675E+00 1.4832493978541714E+00
endloop
endfacet
facet normal -3.8477454883848472E-01 8.7838416082101534E-01 -2.8353097288462398E-01
outer loop
vertex 7.5629516093715776E-01 2.9879570834245675E+00 1.4832493978541714E+00
vertex 1.2049272116461367E+00 3.1922359089212398E+00 1.5072788353863382E+00
vertex 7.3744619799139166E-01 2.8732663797226206E+00 1.1535150645624104E+00
endloop
endfacet
facet normal -3.7919405667503014E-01 8.7839609775825289E-01 -2.9091607522687363E-01
outer loop
vertex 1.2049272116461367E+00 3.1922359089212398E+00 1.5072788353863382E+00
vertex 1.1865242399342646E+00 3.0780608052588336E+00 1.1865242399342644E+00
vertex 7.3744619799139166E-01 2.8732663797226206E+00 1.1535150645624104E+00
endloop
endfacet
facet normal -3.6548417822967189E-01 8.5916598469456418E-01 -3.5812724862484474E-01
outer loop
vertex 7.3744619799139166E-01 2.8732663797226206E+00 1.1535150645624104E+00
vertex 1.1865242399342646E+00 3.0780608052588336E+00 1.1865242399342644E+00
vertex 7.0436453472412830E-01 2.6719736480922318E+00 7.0436453472412852E-01
endloop
endfacet
facet normal -3.5812724862484335E-01 8.5916598469456429E-01 -3.6548417822967333E-01
outer loop
vertex 1.1865242399342646E+00 3.0780608052588336E+00 1.1865242399342644E+00
vertex 1.1535150645624102E+00 2.8732663797226197E+00 7.3744619799139133E-01
vertex 7.0436453472412830E-01 2.6719736480922318E+00 7.0436453472412852E-01
endloop
endfacet
facet normal -3.4781369102533832E-01 8.4339195521788846E-01 -4.0953100762833328E-01
outer loop
vertex 7.0436453472412830E-01 2.6719736480922318E+00 7.0436453472412852E-01
vertex 1.1535150645624102E+00 2.8732663797226197E+00 7.3744619799139133E-01
vertex 6.4406779661016944E-01 2.3050847457627119E+00 0.0000000000000000E+00
endloop
endfacet
facet normal -3.3946512463516487E-01 8.4381330980741209E-01 -4.1562305921145937E-01
outer loop
vertex 1.1535150645624102E+00 2.8732663797226197E+00 7.3744619799139133E-01
vertex 1.0909090909090908E+00 2.4848484848484844E+00 0.0000000000000000E+00
vertex 6.4406779661016944E-01 2.3050847457627119E+00 0.0000000000000000E+00
endloop
endfacet
facet normal -2.6605440439469241E-01 8.6201627023879956E-01 4.3144293220051066E-01
outer loop
vertex 1.0909090909090908E+00 2.4848484848484844E+00 4.0000000000000000E+00
vertex 1.4366197183098592E+00 2.5915492957746480E+00 4.0000000000000000E+00
vertex 1.1535150645624102E+00 2.8732663797226197E+00 3.2625538020086080E+00
endloop
endfacet
facet normal -2.7390912740260448E-01 8.5867717333691040E-01 4.3318275810063978E-01
outer loop
vertex 1.4366197183098592E+00 2.5915492957746480E+00 4.0000000000000000E+00
vertex 1.4832493978541712E+00 2.9879570834245670E+00 3.2437048390628425E+00
vertex 1.1535150645624102E+00 2.8732663797226197E+00 3.2625538020086080E+00
endloop
endfacet
facet normal -2.8434805767543281E-01 8.8001695921253853E-01 3.8041600070781190E-01
outer loop
vertex 1.1535150645624102E+00 2.8732663797226197E+00 3.2625538020086080E+00
vertex 1.4832493978541712E+00 2.9879570834245670E+00 3.2437048390628425E+00
vertex 1.1865242399342646E+00 3.0780608052588327E+00 2.8134757600657361E+00
endloop
endfacet
facet normal -2.9006649422431940E-01 8.7673108102704533E-01 3.8367178745584285E-01
outer loop
vertex 1.4832493978541712E+00 2.9879570834245670E+00 3.2437048390628425E+00
vertex 1.5072788353863380E+00 3.1922359089212389E+00 2.7950727883538633E+00
vertex 1.1865242399342646E+00 3.0780608052588327E+00 2.8134757600657361E+00
endloop
endfacet
facet normal -3.0395428551301312E-01 9.0289732784882437E-01 3.0395428551301312E-01
outer loop
vertex 1.1865242399342646E+00 3.0780608052588327E+00 2.8134757600657361E+00
vertex 1.5072788353863380E+00 3.1922359089212389E+00 2.7950727883538633E+00
vertex 1.2049272116461365E+00 3.1922359089212389E+00 2.4927211646136618E+00
endloop
endfacet
facet normal -3.0799451936619382E-01 9.0015484894587683E-01 3.0799451936619382E-01
outer loop
vertex 1.5072788353863380E+00 3.1922359089212389E+00 2.7950727883538633E+00
vertex 1.5205132534188754E+00 3.3047442174573698E+00 2.4794867465811241E+00
vertex 1.2049272116461365E+00 3.1922359089212389E+00 2.4927211646136618E+00
endloop
endfacet
facet normal -3.2167961937776757E-01 9.2571338531801972E-01 1.9893956549672609E-01
outer loop
vertex 1.2049272116461365E+00 3.1922359089212389E+00 2.4927211646136618E+00
vertex 1.5205132534188754E+00 3.3047442174573698E+00 2.4794867465811241E+00
vertex 1.2144373673036095E+00 3.2512384996461434E+00 2.2335456475583868E+00
endloop
endfacet
facet normal -3.2423160444113985E-01 9.2405475114854863E-01 2.0247637778594804E-01
outer loop
vertex 1.5205132534188754E+00 3.3047442174573698E+00 2.4794867465811241E+00
vertex 1.5273075694666240E+00 3.3625039923347173E+00 2.2267646119450655E+00
vertex 1.2144373673036095E+00 3.2512384996461434E+00 2.2335456475583868E+00
endloop
endfacet
facet normal -3.3291922019763454E-01 9.4038451668289846E-01 6.9582710539835863E-02
outer loop
vertex 1.2144373673036095E+00 3.2512384996461434E+00 2.2335456475583868E+00
vertex 1.5273075694666240E+00 3.3625039923347173E+00 2.2267646119450655E+00
vertex 1.2173913043478262E+00 3.2695652173913046E+00 2.0000000000000000E+00
endloop
endfacet
facet normal -3.3385904106239189E-01 9.3994160791412085E-01 7.1048676361472676E-02
outer loop
vertex 1.5273075694666240E+00 3.3625039923347173E+00 2.2267646119450655E+00
vertex 1.5294117647058825E+00 3.3803921568627451E+00 2.0000000000000000E+00
vertex 1.2173913043478262E+00 3.2695652173913046E+00 2.0000000000000000E+00
endloop
endfacet
facet normal -3.3389454423785647E-01 9.4004156300812125E-01 -6.9543462276784790E-02
outer loop
vertex 1.2173913043478262E+00 3.2695652173913046E+00 2.0000000000000000E+00
vertex 1.5294117647058825E+00 3.3803921568627451E+00 2.0000000000000000E+00
vertex 1.2144373673036095E+00 3.2512384996461434E+00 1.7664543524416136E+00
endloop
endfacet
facet normal -3.3285477153007692E-01 9.4029490105152957E-01 -7.1085864460907908E-02
outer loop
vertex 1.5294117647058825E+00 3.3803921568627451E+00 2.0000000000000000E+00
vertex 1.5273075694666240E+00 3.3625039923347173E+00 1.7732353880549343E+00
vertex 1.2144373673036095E+00 3.2512384996461434E+00 1.7664543524416136E+00
endloop
endfacet
facet normal -3.2457048913627556E-01 9.2477260208587486E-01 -1.9861931430039442E-01
outer loop
vertex 1.2144373673036095E+00 3.2512384996461434E+00 1.7664543524416136E+00
vertex 1.5273075694666240E+00 3.3625039923347173E+00 1.7732353880549343E+00
vertex 1.2049272116461367E+00 3.1922359089212398E+00 1.5072788353863382E+00
endloop
endfacet
facet normal -3.2127220197903572E-01 9.2502197834500910E-01 -2.0277700021014974E-01
outer loop
vertex 1.5273075694666240E+00 3.3625039923347173E+00 1.7732353880549343E+00
vertex 1.5205132534188757E+00 3.3047442174573689E+00 1.5205132534188757E+00
vertex 1.2049272116461367E+00 3.1922359089212398E+00 1.5072788353863382E+00
endloop
endfacet
facet normal -3.0869043176569239E-01 9.0154295605934021E-01 -3.0320045467659978E-01
outer loop
vertex 1.2049272116461367E+00 3.1922359089212398E+00 1.5072788353863382E+00
vertex 1.5205132534188757E+00 3.3047442174573689E+00 1.5205132534188757E+00
vertex 1.1865242399342646E+00 3.0780608052588336E+00 1.1865242399342644E+00
endloop
endfacet
facet normal -3.0320045467659629E-01 9.0154295605934032E-01 -3.0869043176569594E-01
outer loop
vertex 1.5205132534188757E+00 3.3047442174573689E+00 1.5205132534188757E+00
vertex 1.5072788353863380E+00 3.1922359089212384E+00 1.2049272116461365E+00
vertex 1.1865242399342646E+00 3.0780608052588336E+00 1.1865242399342644E+00
endloop
endfacet
facet normal -2.9091607522687041E-01 8.7839609775825311E-01 -3.7919405667503187E-01
outer loop
vertex 1.1865242399342646E+00 3.0780608052588336E+00 1.1865242399342644E+00
vertex 1.5072788353863380E+00 3.1922359089212384E+00 1.2049272116461365E+00
vertex 1.1535150645624102E+00 2.8732663797226197E+00 7.3744619799139133E-01
endloop
endfacet
facet normal -2.8353097288462531E-01 8.7838416082101556E-01 -3.8477454883848317E-01
outer loop
vertex 1.5072788353863380E+00 3.1922359089212384E+00 1.2049272116461365E+00
vertex 1.4832493978541710E+00 2.9879570834245670E+00 7.5629516093715765E-01
vertex 1.1535150645624102E+00 2.8732663797226197E+00 7.3744619799139133E-01
endloop
endfacet
facet normal -2.7462634714198486E-01 8.6017418465687978E-01 -4.2974497263530814E-01
outer loop
vertex 1.1535150645624102E+00 2.8732663797226197E+00 7.3744619799139133E-01
vertex 1.4832493978541710E+00 2.9879570834245670E+00 7.5629516093715765E-01
vertex 1.0909090909090908E+00 2.4848484848484844E+00 0.0000000000000000E+00
endloop
endfacet
facet normal -2.6559728712824276E-01 8.6053521029550284E-01 -4.3466910738145687E-01
outer loop
vertex 1.4832493978541710E+00 2.9879570834245670E+00 7.5629516093715765E-01
vertex 1.4366197183098592E+00 2.5915492957746480E+00 0.0000000000000000E+00
vertex 1.0909090909090908E+00 2.4848484848484844E+00 0.0000000000000000E+00
endloop
endfacet
facet normal -1.7084036060326613E-01 8.7698051776343378E-01 4.4913109740066526E-01
outer loop
vertex 1.4366197183098592E+00 2.5915492957746480E+00 4.0000000000000000E+00
vertex 1.7297297297297298E+00 2.6486486486486487E+00 4.0000000000000000E+00
vertex 1.4832493978541712E+00 2.9879570834245670E+00 3.2437048390628425E+00
endloop
endfacet
facet normal -1.7740543384577873E-01 8.7502703744668475E-01 4.5039426703641477E-01
outer loop
vertex 1.7297297297297298E+00 2.6486486486486487E+00 4.0000000000000000E+00
vertex 1.7540641934139223E+00 3.0479366402667769E+00 3.2338474364318461E+00
vertex 1.4832493978541712E+00 2.9879570834245670E+00 3.2437048390628425E+00
endloop
endfacet
facet normal -1.8439952708480215E-01 8.9817551633758852E-01 3.9909592363566837E-01
outer loop
vertex 1.4832493978541712E+00 2.9879570834245670E+00 3.2437048390628425E+00
vertex 1.7540641934139223E+00 3.0479366402667769E+00 3.2338474364318461E+00
vertex 1.5072788353863380E+00 3.1922359089212389E+00 2.7950727883538633E+00
endloop
endfacet
facet normal -1.8930505003393111E-01 8.9621140713705572E-01 4.0120906239648885E-01
outer loop
vertex 1.7540641934139223E+00 3.0479366402667769E+00 3.2338474364318461E+00
vertex 1.7664543524416136E+00 3.2512384996461430E+00 2.7855626326963909E+00
vertex 1.5072788353863380E+00 3.1922359089212389E+00 2.7950727883538633E+00
endloop
endfacet
facet normal -1.9893956549672487E-01 9.2571338531801994E-01 3.2167961937776762E-01
outer loop
vertex 1.5072788353863380E+00 3.1922359089212389E+00 2.7950727883538633E+00
vertex 1.7664543524416136E+00 3.2512384996461430E+00 2.7855626326963909E+00
vertex 1.5205132534188754E+00 3.3047442174573698E+00 2.4794867465811241E+00
endloop
endfacet
facet normal -2.0247637778594868E-01 9.2405475114854796E-01 3.2423160444114124E-01
outer loop
vertex 1.7664543524416136E+00 3.2512384996461430E+00 2.7855626326963909E+00
vertex 1.7732353880549345E+00 3.3625039923347173E+00 2.4726924305333764E+00
vertex 1.5205132534188754E+00 3.3047442174573698E+00 2.4794867465811241E+00
endloop
endfacet
facet normal -2.1229878817622932E-01 9.5386500568886012E-01 2.1229878817622894E-01
outer loop
vertex 1.5205132534188754E+00 3.3047442174573698E+00 2.4794867465811241E+00
vertex 1.7732353880549345E+00 3.3625039923347173E+00 2.4726924305333764E+00
vertex 1.5273075694666240E+00 3.3625039923347173E+00 2.2267646119450655E+00
endloop
endfacet
facet normal -2.1452254868600001E-01 9.5286943083012454E-01 2.1452254868599965E-01
outer loop
vertex 1.7732353880549345E+00 3.3625039923347173E+00 2.4726924305333764E+00
vertex 1.7767048883524439E+00 3.4194327097163546E+00 2.2232951116475559E+00
vertex 1.5273075694666240E+00 3.3625039923347173E+00 2.2267646119450655E+00
endloop
endfacet
facet normal -2.2093263523341947E-01 9.7242726299500126E-01 7.4659151300206866E-02
outer loop
vertex 1.5273075694666240E+00 3.3625039923347173E+00 2.2267646119450655E+00
vertex 1.7767048883524439E+00 3.4194327097163546E+00 2.2232951116475559E+00
vertex 1.5294117647058825E+00 3.3803921568627451E+00 2.0000000000000000E+00
endloop
endfacet
facet normal -2.2172433073039655E-01 9.7217591166405137E-01 7.5579877893047140E-02
outer loop
vertex 1.7767048883524439E+00 3.4194327097163546E+00 2.2232951116475559E+00
vertex 1.7777777777777777E+00 3.4370370370370367E+00 2.0000000000000000E+00
vertex 1.5294117647058825E+00 3.3803921568627451E+00 2.0000000000000000E+00
endloop
endfacet
facet normal -2.2174011762579560E-01 9.7224513112849353E-01 -7.4637291163577923E-02
outer loop
vertex 1.5294117647058825E+00 3.3803921568627451E+00 2.0000000000000000E+00
vertex 1.7777777777777777E+00 3.4370370370370367E+00 2.0000000000000000E+00
vertex 1.5273075694666240E+00 3.3625039923347173E+00 1.7732353880549343E+00
endloop
endfacet
facet normal -2.2090446450957957E-01 9.7236109390783720E-01 -7.5598416743277774E-02
outer loop
vertex 1.7777777777777777E+00 3.4370370370370367E+00 2.0000000000000000E+00
vertex 1.7767048883524439E+00 3.4194327097163546E+00 1.7767048883524439E+00
vertex 1.5273075694666240E+00 3.3625039923347173E+00 1.7732353880549343E+00
endloop
endfacet
facet normal -2.1467092109785246E-01 9.5337316736738309E-01 -2.1212260459197518E-01
outer loop
vertex 1.5273075694666240E+00 3.3625039923347173E+00 1.7732353880549343E+00
vertex 1.7767048883524439E+00 3.4194327097163546E+00 1.7767048883524439E+00
vertex 1.5205132534188757E+00 3.3047442174573689E+00 1.5205132534188757E+00
endloop
endfacet
facet normal -2.1212260459197496E-01 9.5337316736738309E-01 -2.1467092109785260E-01
outer loop
vertex 1.7767048883524439E+00 3.4194327097163546E+00 1.7767048883524439E+00
vertex 1.7732353880549343E+00 3.3625039923347173E+00 1.5273075694666243E+00
vertex 1.5205132534188757E+00 3.3047442174573689E+00 1.5205132534188757E+00
endloop
endfacet
facet normal -2.0277700021014919E-01 9.2502197834500821E-01 -3.2127220197903900E-01
outer loop
vertex 1.5205132534188757E+00 3.3047442174573689E+00 1.5205132534188757E+00
vertex 1.7732353880549343E+00 3.3625039923347173E+00 1.5273075694666243E+00
vertex 1.5072788353863380E+00 3.1922359089212384E+00 1.2049272116461365E+00
endloop
endfacet
facet normal -1.9861931430039728E-01 9.2477260208587408E-01 -3.2457048913627612E-01
outer loop
vertex 1.7732353880549343E+00 3.3625039923347173E+00 1.5273075694666243E+00
vertex 1.7664543524416136E+00 3.2512384996461430E+00 1.2144373673036093E+00
vertex 1.5072788353863380E+00 3.1922359089212384E+00 1.2049272116461365E+00
endloop
endfacet
facet normal -1.8966944808148598E-01 8.9736660262537093E-01 -3.9844532994761545E-01
outer loop
vertex 1.5072788353863380E+00 3.1922359089212384E+00 1.2049272116461365E+00
vertex 1.7664543524416136E+00 3.2512384996461430E+00 1.2144373673036093E+00
vertex 1.4832493978541710E+00 2.9879570834245670E+00 7.5629516093715765E-01
endloop
endfacet
facet normal -1.8405740487113020E-01 8.9706558058869912E-01 -4.0174147885818923E-01
outer loop
vertex 1.7664543524416136E+00 3.2512384996461430E+00 1.2144373673036093E+00
vertex 1.7540641934139225E+00 3.0479366402667774E+00 7.6615256356815320E-01
vertex 1.4832493978541710E+00 2.9879570834245670E+00 7.5629516093715765E-01
endloop
endfacet
facet normal -1.7771596423610650E-01 8.7607374211897637E-01 -4.4823189804529112E-01
outer loop
vertex 1.4832493978541710E+00 2.9879570834245670E+00 7.5629516093715765E-01
vertex 1.7540641934139225E+00 3.0479366402667774E+00 7.6615256356815320E-01
vertex 1.4366197183098592E+00 2.5915492957746480E+00 0.0000000000000000E+00
endloop
endfacet
facet normal -1.7064911377952124E-01 8.7599878406820930E-01 -4.5111529599126077E-01
outer loop
vertex 1.7540641934139225E+00 3.0479366402667774E+00 7.6615256356815320E-01
vertex 1.7297297297297298E+00 2.6486486486486487E+00 0.0000000000000000E+00
vertex 1.4366197183098592E+00 2.5915492957746480E+00 0.0000000000000000E+00
endloop
endfacet
facet normal -5.9067648402846458E-02 8.8601472604270559E-01 4.5987924300584260E-01
outer loop
vertex 1.7297297297297298E+00 2.6486486486486487E+00 4.0000000000000000E+00
vertex 2.0000000000000000E+00 2.6666666666666665E+00 4.0000000000000000E+00
vertex 1.7540641934139223E+00 3.0479366402667769E+00 3.2338474364318461E+00
endloop
endfacet
facet normal -6.1676753964441389E-02 8.8552769725058811E-01 4.6047440257030625E-01
outer loop
vertex 2.0000000000000000E+00 2.6666666666666665E+00 4.0000000000000000E+00
vertex 2.0000000000000000E+00 3.0666666666666669E+00 3.2307692307692308E+00
vertex 1.7540641934139223E+00 3.0479366402667769E+00 3.2338474364318461E+00
endloop
endfacet
facet normal -6.4126353617701817E-02 9.0951225254671997E-01 4.1070095354051589E-01
outer loop
vertex 1.7540641934139223E+00 3.0479366402667769E+00 3.2338474364318461E+00
vertex 2.0000000000000000E+00 3.0666666666666669E+00 3.2307692307692308E+00
vertex 1.7664543524416136E+00 3.2512384996461430E+00 2.7855626326963909E+00
endloop
endfacet
facet normal -6.6124988878607432E-02 9.0899247954861329E-01 4.1153390865136258E-01
outer loop
vertex 2.0000000000000000E+00 3.0666666666666669E+00 3.2307692307692308E+00
vertex 2.0000000000000000E+00 3.2695652173913046E+00 2.7826086956521743E+00
vertex 1.7664543524416136E+00 3.2512384996461430E+00 2.7855626326963909E+00
endloop
endfacet
facet normal -6.9582710539837708E-02 9.4038451668289780E-01 3.3291922019763570E-01
outer loop
vertex 1.7664543524416136E+00 3.2512384996461430E+00 2.7855626326963909E+00
vertex 2.0000000000000000E+00 3.2695652173913046E+00 2.7826086956521743E+00
vertex 1.7732353880549345E+00 3.3625039923347173E+00 2.4726924305333764E+00
endloop
endfacet
facet normal -7.1048676361471733E-02 9.3994160791412118E-01 3.3385904106239134E-01
outer loop
vertex 2.0000000000000000E+00 3.2695652173913046E+00 2.7826086956521743E+00
vertex 2.0000000000000000E+00 3.3803921568627451E+00 2.4705882352941173E+00
vertex 1.7732353880549345E+00 3.3625039923347173E+00 2.4726924305333764E+00
endloop
endfacet
facet normal -7.4659151300206228E-02 9.7242726299500160E-01 2.2093263523341905E-01
outer loop
vertex 1.7732353880549345E+00 3.3625039923347173E+00 2.4726924305333764E+00
vertex 2.0000000000000000E+00 3.3803921568627451E+00 2.4705882352941173E+00
vertex 1.7767048883524439E+00 3.4194327097163546E+00 2.2232951116475559E+00
endloop
endfacet
facet normal -7.5579877893048722E-02 9.7217591166405104E-01 2.2172433073039793E-01
outer loop
vertex 2.0000000000000000E+00 3.3803921568627451E+00 2.4705882352941173E+00
vertex 2.0000000000000000E+00 3.4370370370370371E+00 2.2222222222222219E+00
vertex 1.7767048883524439E+00 3.4194327097163546E+00 2.2232951116475559E+00
endloop
endfacet
facet normal -7.7983228607405183E-02 9.9390001112382054E-01 7.7983228607403379E-02
outer loop
vertex 1.7767048883524439E+00 3.4194327097163546E+00 2.2232951116475559E+00
vertex 2.0000000000000000E+00 3.4370370370370371E+00 2.2222222222222219E+00
vertex 1.7777777777777777E+00 3.4370370370370367E+00 2.0000000000000000E+00
endloop
endfacet
facet normal -7.8303308020924861E-02 9.9384967872710039E-01 7.8303308020923029E-02
outer loop
vertex 2.0000000000000000E+00 3.4370370370370371E+00 2.2222222222222219E+00
vertex 2.0000000000000000E+00 3.4545454545454546E+00 2.0000000000000000E+00
vertex 1.7777777777777777E+00 3.4370370370370367E+00 2.0000000000000000E+00
endloop
endfacet
facet normal -7.8305300244080264E-02 9.9387496463638059E-01 -7.7979706480069161E-02
outer loop
vertex 1.7777777777777777E+00 3.4370370370370367E+00 2.0000000000000000E+00
vertex 2.0000000000000000E+00 3.4545454545454546E+00 2.0000000000000000E+00
vertex 1.7767048883524439E+00 3.4194327097163546E+00 1.7767048883524439E+00
endloop
endfacet
facet normal -7.7979706480071062E-02 9.9387496463638070E-01 -7.8305300244078377E-02
outer loop
vertex 2.0000000000000000E+00 3.4545454545454546E+00 2.0000000000000000E+00
vertex 2.0000000000000000E+00 3.4370370370370371E+00 1.7777777777777779E+00
vertex 1.7767048883524439E+00 3.4194327097163546E+00 1.7767048883524439E+00
endloop
endfacet
facet normal -7.5598416743279467E-02 9.7236109390783687E-01 -2.2090446450957971E-01
outer loop
vertex 1.7767048883524439E+00 3.4194327097163546E+00 1.7767048883524439E+00
vertex 2.0000000000000000E+00 3.4370370370370371E+00 1.7777777777777779E+00
vertex 1.7732353880549343E+00 3.3625039923347173E+00 1.5273075694666243E+00
endloop
endfacet
facet normal -7.4637291163579811E-02 9.7224513112849353E-01 -2.2174011762579560E-01
outer loop
vertex 2.0000000000000000E+00 3.4370370370370371E+00 1.7777777777777779E+00
vertex 2.0000000000000000E+00 3.3803921568627455E+00 1.5294117647058827E+00
vertex 1.7732353880549343E+00 3.3625039923347173E+00 1.5273075694666243E+00
endloop
endfacet
facet normal -7.1085864460909712E-02 9.4029490105152913E-01 -3.3285477153007753E-01
outer loop
vertex 1.7732353880549343E+00 3.3625039923347173E+00 1.5273075694666243E+00
vertex 2.0000000000000000E+00 3.3803921568627455E+00 1.5294117647058827E+00
vertex 1.7664543524416136E+00 3.2512384996461430E+00 1.2144373673036093E+00
endloop
endfacet
facet normal -6.9543462276786511E-02 9.4004156300812081E-01 -3.3389454423785725E-01
outer loop
vertex 2.0000000000000000E+00 3.3803921568627455E+00 1.5294117647058827E+00
vertex 2.0000000000000000E+00 3.2695652173913046E+00 1.2173913043478259E+00
vertex 1.7664543524416136E+00 3.2512384996461430E+00 1.2144373673036093E+00
endloop
endfacet
facet normal -6.6169728612072584E-02 9.0941192396922521E-01 -4.1059897656715683E-01
outer loop
vertex 1.7664543524416136E+00 3.2512384996461430E+00 1.2144373673036093E+00
vertex 2.0000000000000000E+00 3.2695652173913046E+00 1.2173913043478259E+00
vertex 1.7540641934139225E+00 3.0479366402667774E+00 7.6615256356815320E-01
endloop
endfacet
facet normal -6.4084890588775867E-02 9.0911373449957489E-01 -4.1158880517144941E-01
outer loop
vertex 2.0000000000000000E+00 3.2695652173913046E+00 1.2173913043478259E+00
vertex 2.0000000000000000E+00 3.0666666666666669E+00 7.6923076923076916E-01
vertex 1.7540641934139225E+00 3.0479366402667774E+00 7.6615256356815320E-01
endloop
endfacet
facet normal -6.1714848268574679E-02 8.8590704352278704E-01 -4.5973904308846958E-01
outer loop
vertex 1.7540641934139225E+00 3.0479366402667774E+00 7.6615256356815320E-01
vertex 2.0000000000000000E+00 3.0666666666666669E+00 7.6923076923076916E-01
vertex 1.7297297297297298E+00 2.6486486486486487E+00 0.0000000000000000E+00
endloop
endfacet
facet normal -5.9044594328097645E-02 8.8566891492147248E-01 -4.6054783575916614E-01
outer loop
vertex 2.0000000000000000E+00 3.0666666666666669E+00 7.6923076923076916E-01
vertex 2.0000000000000000E+00 2.6666666666666665E+00 0.0000000000000000E+00
vertex 1.7297297297297298E+00 2.6486486486486487E+00 0.0000000000000000E+00
endloop
endfacet
facet normal 5.9044594328097583E-02 8.8566891492147248E-01 4.6054783575916614E-01
outer loop
vertex 2.0000000000000000E+00 2.6666666666666665E+00 4.0000000000000000E+00
vertex 2.2702702702702702E+00 2.6486486486486487E+00 4.0000000000000000E+00
vertex 2.0000000000000000E+00 3.0666666666666669E+00 3.2307692307692308E+00
endloop
endfacet
facet normal 6.1714848268577691E-02 8.8590704352278715E-01 4.5973904308846864E-01
outer loop
vertex 2.2702702702702702E+00 2.6486486486486487E+00 4.0000000000000000E+00
vertex 2.2459358065860773E+00 3.0479366402667769E+00 3.2338474364318461E+00
vertex 2.0000000000000000E+00 3.0666666666666669E+00 3.2307692307692308E+00
endloop
endfacet
facet normal 6.4084890588778559E-02 9.0911373449957444E-01 4.1158880517144941E-01
outer loop
vertex 2.0000000000000000E+00 3.0666666666666669E+00 3.2307692307692308E+00
vertex 2.2459358065860773E+00 3.0479366402667769E+00 3.2338474364318461E+00
vertex 2.0000000000000000E+00 3.2695652173913046E+00 2.7826086956521743E+00
endloop
endfacet
facet normal 6.6169728612072362E-02 9.0941192396922466E-01 4.1059897656715838E-01
outer loop
vertex 2.2459358065860773E+00 3.0479366402667769E+00 3.2338474364318461E+00
vertex 2.2335456475583868E+00 3.2512384996461430E+00 2.7855626326963909E+00
vertex 2.0000000000000000E+00 3.2695652173913046E+00 2.7826086956521743E+00
endloop
endfacet
facet normal 6.9543462276786469E-02 9.4004156300812136E-01 3.3389454423785581E-01
outer loop
vertex 2.0000000000000000E+00 3.2695652173913046E+00 2.7826086956521743E+00
vertex 2.2335456475583868E+00 3.2512384996461430E+00 2.7855626326963909E+00
vertex 2.0000000000000000E+00 3.3803921568627451E+00 2.4705882352941173E+00
endloop
endfacet
facet normal 7.1085864460906825E-02 9.4029490105152935E-01 3.3285477153007809E-01
outer loop
vertex 2.2335456475583868E+00 3.2512384996461430E+00 2.7855626326963909E+00
vertex 2.2267646119450659E+00 3.3625039923347173E+00 2.4726924305333764E+00
vertex 2.0000000000000000E+00 3.3803921568627451E+00 2.4705882352941173E+00
endloop
endfacet
facet normal 7.4637291163577146E-02 9.7224513112849331E-01 2.2174011762579710E-01
outer loop
vertex 2.0000000000000000E+00 3.3803921568627451E+00 2.4705882352941173E+00
vertex 2.2267646119450659E+00 3.3625039923347173E+00 2.4726924305333764E+00
vertex 2.0000000000000000E+00 3.4370370370370371E+00 2.2222222222222219E+00
endloop
endfacet
facet normal 7.5598416743279565E-02 9.7236109390783720E-01 2.2090446450957882E-01
outer loop
vertex 2.2267646119450659E+00 3.3625039923347173E+00 2.4726924305333764E+00
vertex 2.2232951116475559E+00 3.4194327097163546E+00 2.2232951116475559E+00
vertex 2.0000000000000000E+00 3.4370370370370371E+00 2.2222222222222219E+00
endloop
endfacet
facet normal 7.7979706480071131E-02 9.9387496463638048E-01 7.8305300244078432E-02
outer loop
vertex 2.0000000000000000E+00 3.4370370370370371E+00 2.2222222222222219E+00
vertex 2.2232951116475559E+00 3.4194327097163546E+00 2.2232951116475559E+00
vertex 2.0000000000000000E+00 3.4545454545454546E+00 2.0000000000000000E+00
endloop
endfacet
facet normal 7.8305300244080417E-02 9.9387496463638048E-01 7.7979706480069147E-02
outer loop
vertex 2.2232951116475559E+00 3.4194327097163546E+00 2.2232951116475559E+00
vertex 2.2222222222222219E+00 3.4370370370370367E+00 2.0000000000000000E+00
vertex 2.0000000000000000E+00 3.4545454545454546E+00 2.0000000000000000E+00
endloop
endfacet
facet normal 7.8303308020925000E-02 9.9384967872710028E-01 -7.8303308020922946E-02
outer loop
vertex 2.0000000000000000E+00 3.4545454545454546E+00 2.0000000000000000E+00
vertex 2.2222222222222219E+00 3.4370370370370367E+00 2.0000000000000000E+00
vertex 2.0000000000000000E+00 3.4370370370370371E+00 1.7777777777777779E+00
endloop
endfacet
facet normal 7.7983228607405294E-02 9.9390001112382054E-01 -7.7983228607403227E-02
outer loop
vertex 2.2222222222222219E+00 3.4370370370370367E+00 2.0000000000000000E+00
vertex 2.2232951116475559E+00 3.4194327097163546E+00 1.7767048883524439E+00
vertex 2.0000000000000000E+00 3.4370370370370371E+00 1.7777777777777779E+00
endloop
endfacet
facet normal 7.5579877893048847E-02 9.7217591166405137E-01 -2.2172433073039649E-01
outer loop
vertex 2.0000000000000000E+00 3.4370370370370371E+00 1.7777777777777779E+00
vertex 2.2232951116475559E+00 3.4194327097163546E+00 1.7767048883524439E+00
vertex 2.0000000000000000E+00 3.3803921568627455E+00 1.5294117647058827E+00
endloop
endfacet
facet normal 7.4659151300208726E-02 9.7242726299500126E-01 -2.2093263523341961E-01
outer loop
vertex 2.2232951116475559E+00 3.4194327097163546E+00 1.7767048883524439E+00
vertex 2.2267646119450655E+00 3.3625039923347173E+00 1.5273075694666243E+00
vertex 2.0000000000000000E+00 3.3803921568627455E+00 1.5294117647058827E+00
endloop
endfacet
facet normal 7.1048676361474467E-02 9.3994160791412040E-01 -3.3385904106239256E-01
outer loop
vertex 2.0000000000000000E+00 3.3803921568627455E+00 1.5294117647058827E+00
vertex 2.2267646119450655E+00 3.3625039923347173E+00 1.5273075694666243E+00
vertex 2.0000000000000000E+00 3.2695652173913046E+00 1.2173913043478259E+00
endloop
endfacet
facet normal 6.9582710539837653E-02 9.4038451668289791E-01 -3.3291922019763520E-01
outer loop
vertex 2.2267646119450655E+00 3.3625039923347173E+00 1.5273075694666243E+00
vertex 2.2335456475583868E+00 3.2512384996461430E+00 1.2144373673036093E+00
vertex 2.0000000000000000E+00 3.2695652173913046E+00 1.2173913043478259E+00
endloop
endfacet
facet normal 6.6124988878607349E-02 9.0899247954861340E-01 -4.1153390865136241E-01
outer loop
vertex 2.0000000000000000E+00 3.2695652173913046E+00 1.2173913043478259E+00
vertex 2.2335456475583868E+00 3.2512384996461430E+00 1.2144373673036093E+00
vertex 2.0000000000000000E+00 3.0666666666666669E+00 7.6923076923076916E-01
endloop
endfacet
facet normal 6.4126353617699222E-02 9.0951225254672075E-01 -4.1070095354051467E-01
outer loop
vertex 2.2335456475583868E+00 3.2512384996461430E+00 1.2144373673036093E+00
vertex 2.2459358065860773E+00 3.0479366402667774E+00 7.6615256356815320E-01
vertex 2.0000000000000000E+00 3.0666666666666669E+00 7.6923076923076916E-01
endloop
endfacet
facet normal 6.1676753964438717E-02 8.8552769725058844E-01 -4.6047440257030636E-01
outer loop
vertex 2.0000000000000000E+00 3.0666666666666669E+00 7.6923076923076916E-01
vertex 2.2459358065860773E+00 3.0479366402667774E+00 7.6615256356815320E-01
vertex 2.0000000000000000E+00 2.6666666666666665E+00 0.0000000000000000E+00
endloop
endfacet
facet normal 5.9067648402846437E-02 8.8601472604270548E-01 -4.5987924300584337E-01
outer loop
vertex 2.2459358065860773E+00 3.0479366402667774E+00 7.6615256356815320E-01
vertex 2.2702702702702702E+00 2.6486486486486487E+00 0.0000000000000000E+00
vertex 2.0000000000000000E+00 2.6666666666666665E+00 0.0000000000000000E+00
endloop
endfacet
facet normal 1.7064911377952127E-01 8.7599878406820963E-01 4.5111529599125993E-01
outer loop
vertex 2.2702702702702702E+00 2.6486486486486487E+00 4.0000000000000000E+00
vertex 2.5633802816901405E+00 2.5915492957746480E+00 4.0000000000000000E+00
vertex 2.2459358065860773E+00 3.0479366402667769E+00 3.2338474364318461E+00
endloop
endfacet
facet normal 1.7771596423610383E-01 8.7607374211897671E-01 4.4823189804529145E-01
outer loop
vertex 2.5633802816901405E+00 2.5915492957746480E+00 4.0000000000000000E+00
vertex 2.5167506021458288E+00 2.9879570834245670E+00 3.2437048390628425E+00
vertex 2.2459358065860773E+00 3.0479366402667769E+00 3.2338474364318461E+00
endloop
endfacet
facet normal 1.8405740487112751E-01 8.9706558058869901E-01 4.0174147885819123E-01
outer loop
vertex 2.2459358065860773E+00 3.0479366402667769E+00 3.2338474364318461E+00
vertex 2.5167506021458288E+00 2.9879570834245670E+00 3.2437048390628425E+00
vertex 2.2335456475583868E+00 3.2512384996461430E+00 2.7855626326963909E+00
endloop
endfacet
facet normal 1.8966944808148584E-01 8.9736660262537071E-01 3.9844532994761567E-01
outer loop
vertex 2.5167506021458288E+00 2.9879570834245670E+00 3.2437048390628425E+00
vertex 2.4927211646136613E+00 3.1922359089212389E+00 2.7950727883538633E+00
vertex 2.2335456475583868E+00 3.2512384996461430E+00 2.7855626326963909E+00
endloop
endfacet
facet normal 1.9861931430039706E-01 9.2477260208587408E-01 3.2457048913627634E-01
outer loop
vertex 2.2335456475583868E+00 3.2512384996461430E+00 2.7855626326963909E+00
vertex 2.4927211646136613E+00 3.1922359089212389E+00 2.7950727883538633E+00
vertex 2.2267646119450659E+00 3.3625039923347173E+00 2.4726924305333764E+00
endloop
endfacet
facet normal 2.0277700021014736E-01 9.2502197834500810E-01 3.2127220197904055E-01
outer loop
vertex 2.4927211646136613E+00 3.1922359089212389E+00 2.7950727883538633E+00
vertex 2.4794867465811241E+00 3.3047442174573698E+00 2.4794867465811241E+00
vertex 2.2267646119450659E+00 3.3625039923347173E+00 2.4726924305333764E+00
endloop
endfacet
facet normal 2.1212260459197291E-01 9.5337316736738376E-01 2.1467092109785169E-01
outer loop
vertex 2.2267646119450659E+00 3.3625039923347173E+00 2.4726924305333764E+00
vertex 2.4794867465811241E+00 3.3047442174573698E+00 2.4794867465811241E+00
vertex 2.2232951116475559E+00 3.4194327097163546E+00 2.2232951116475559E+00
endloop
endfacet
facet normal 2.1467092109785280E-01 9.5337316736738364E-01 2.1212260459197174E-01
outer loop
vertex 2.4794867465811241E+00 3.3047442174573698E+00 2.4794867465811241E+00
vertex 2.4726924305333755E+00 3.3625039923347173E+00 2.2267646119450655E+00
vertex 2.2232951116475559E+00 3.4194327097163546E+00 2.2232951116475559E+00
endloop
endfacet
facet normal 2.2090446450957976E-01 9.7236109390783709E-01 7.5598416743277635E-02
outer loop
vertex 2.2232951116475559E+00 3.4194327097163546E+00 2.2232951116475559E+00
vertex 2.4726924305333755E+00 3.3625039923347173E+00 2.2267646119450655E+00
vertex 2.2222222222222219E+00 3.4370370370370367E+00 2.0000000000000000E+00
endloop
endfacet
facet normal 2.2174011762579543E-01 9.7224513112849364E-01 7.4637291163578201E-02
outer loop
vertex 2.4726924305333755E+00 3.3625039923347173E+00 2.2267646119450655E+00
vertex 2.4705882352941173E+00 3.3803921568627451E+00 2.0000000000000000E+00
vertex 2.2222222222222219E+00 3.4370370370370367E+00 2.0000000000000000E+00
endloop
endfacet
facet normal 2.2172433073039632E-01 9.7217591166405160E-01 -7.5579877893046862E-02
outer loop
vertex 2.2222222222222219E+00 3.4370370370370367E+00 2.0000000000000000E+00
vertex 2.4705882352941173E+00 3.3803921568627451E+00 2.0000000000000000E+00
vertex 2.2232951116475559E+00 3.4194327097163546E+00 1.7767048883524439E+00
endloop
endfacet
facet normal 2.2093263523341966E-01 9.7242726299500126E-01 -7.4659151300206991E-02
outer loop
vertex 2.4705882352941173E+00 3.3803921568627451E+00 2.0000000000000000E+00
vertex 2.4726924305333755E+00 3.3625039923347173E+00 1.7732353880549343E+00
vertex 2.2232951116475559E+00 3.4194327097163546E+00 1.7767048883524439E+00
endloop
endfacet
facet normal 2.1452254868600018E-01 9.5286943083012443E-01 -2.1452254868600018E-01
outer loop
vertex 2.2232951116475559E+00 3.4194327097163546E+00 1.7767048883524439E+00
vertex 2.4726924305333755E+00 3.3625039923347173E+00 1.7732353880549343E+00
vertex 2.2267646119450655E+00 3.3625039923347173E+00 1.5273075694666243E+00
endloop
endfacet
facet normal 2.1229878817623196E-01 9.5386500568885890E-01 -2.1229878817623196E-01
outer loop
vertex 2.4726924305333755E+00 3.3625039923347173E+00 1.7732353880549343E+00
vertex 2.4794867465811241E+00 3.3047442174573689E+00 1.5205132534188757E+00
vertex 2.2267646119450655E+00 3.3625039923347173E+00 1.5273075694666243E+00
endloop
endfacet
facet normal 2.0247637778595112E-01 9.2405475114854796E-01 -3.2423160444114041E-01
outer loop
vertex 2.2267646119450655E+00 3.3625039923347173E+00 1.5273075694666243E+00
vertex 2.4794867465811241E+00 3.3047442174573689E+00 1.5205132534188757E+00
vertex 2.2335456475583868E+00 3.2512384996461430E+00 1.2144373673036093E+00
endloop
endfacet
facet normal 1.9893956549672684E-01 9.2571338531801983E-01 -3.2167961937776635E-01
outer loop
vertex 2.4794867465811241E+00 3.3047442174573689E+00 1.5205132534188757E+00
vertex 2.4927211646136613E+00 3.1922359089212384E+00 1.2049272116461365E+00
vertex 2.2335456475583868E+00 3.2512384996461430E+00 1.2144373673036093E+00
endloop
endfacet
facet normal 1.8930505003393291E-01 8.9621140713705583E-01 -4.0120906239648763E-01
outer loop
vertex 2.2335456475583868E+00 3.2512384996461430E+00 1.2144373673036093E+00
vertex 2.4927211646136613E+00 3.1922359089212384E+00 1.2049272116461365E+00
vertex 2.2459358065860773E+00 3.0479366402667774E+00 7.6615256356815320E-01
endloop
endfacet
facet normal 1.8439952708480448E-01 8.9817551633758863E-01 -3.9909592363566743E-01
outer loop
vertex 2.4927211646136613E+00 3.1922359089212384E+00 1.2049272116461365E+00
vertex 2.5167506021458288E+00 2.9879570834245670E+00 7.5629516093715765E-01
vertex 2.2459358065860773E+00 3.0479366402667774E+00 7.6615256356815320E-01
endloop
endfacet
facet normal 1.7740543384578111E-01 8.7502703744668398E-01 -4.5039426703641516E-01
outer loop
vertex 2.2459358065860773E+00 3.0479366402667774E+00 7.6615256356815320E-01
vertex 2.5167506021458288E+00 2.9879570834245670E+00 7.5629516093715765E-01
vertex 2.2702702702702702E+00 2.6486486486486487E+00 0.0000000000000000E+00
endloop
endfacet
facet normal 1.7084036060326627E-01 8.7698051776343355E-01 -4.4913109740066509E-01
outer loop
vertex 2.5167506021458288E+00 2.9879570834245670E+00 7.5629516093715765E-01
vertex 2.5633802816901405E+00 2.5915492957746480E+00 0.0000000000000000E+00
vertex 2.2702702702702702E+00 2.6486486486486487E+00 0.0000000000000000E+00
endloop
endfacet
facet normal 2.6559728712824160E-01 8.6053521029550306E-01 4.3466910738145714E-01
outer loop
vertex 2.5633802816901405E+00 2.5915492957746480E+00 4.0000000000000000E+00
vertex 2.9090909090909092E+00 2.4848484848484849E+00 4.0000000000000000E+00
vertex 2.5167506021458288E+00 2.9879570834245670E+00 3.2437048390628425E+00
endloop
endfacet
facet normal 2.7462634714198353E-01 8.6017418465688011E-01 4.2974497263530864E-01
outer loop
vertex 2.9090909090909092E+00 2.4848484848484849E+00 4.0000000000000000E+00
vertex 2.8464849354375898E+00 2.8732663797226206E+00 3.2625538020086080E+00
vertex 2.5167506021458288E+00 2.9879570834245670E+00 3.2437048390628425E+00
endloop
endfacet
facet normal 2.8353097288462370E-01 8.7838416082101578E-01 3.8477454883848355E-01
outer loop
vertex 2.5167506021458288E+00 2.9879570834245670E+00 3.2437048390628425E+00
vertex 2.8464849354375898E+00 2.8732663797226206E+00 3.2625538020086080E+00
vertex 2.4927211646136613E+00 3.1922359089212389E+00 2.7950727883538633E+00
endloop
endfacet
facet normal 2.9091607522687130E-01 8.7839609775825334E-01 3.7919405667503048E-01
outer loop
vertex 2.8464849354375898E+00 2.8732663797226206E+00 3.2625538020086080E+00
vertex 2.8134757600657356E+00 3.0780608052588336E+00 2.8134757600657352E+00
vertex 2.4927211646136613E+00 3.1922359089212389E+00 2.7950727883538633E+00
endloop
endfacet
facet normal 3.0320045467659656E-01 9.0154295605933976E-01 3.0869043176569744E-01
outer loop
vertex 2.4927211646136613E+00 3.1922359089212389E+00 2.7950727883538633E+00
vertex 2.8134757600657356E+00 3.0780608052588336E+00 2.8134757600657352E+00
vertex 2.4794867465811241E+00 3.3047442174573698E+00 2.4794867465811241E+00
endloop
endfacet
facet normal 3.0869043176569527E-01 9.0154295605933976E-01 3.0320045467659879E-01
outer loop
vertex 2.8134757600657356E+00 3.0780608052588336E+00 2.8134757600657352E+00
vertex 2.7950727883538637E+00 3.1922359089212393E+00 2.4927211646136618E+00
vertex 2.4794867465811241E+00 3.3047442174573698E+00 2.4794867465811241E+00
endloop
endfacet
facet normal 3.2127220197903883E-01 9.2502197834500877E-01 2.0277700021014608E-01
outer loop
vertex 2.4794867465811241E+00 3.3047442174573698E+00 2.4794867465811241E+00
vertex 2.7950727883538637E+00 3.1922359089212393E+00 2.4927211646136618E+00
vertex 2.4726924305333755E+00 3.3625039923347173E+00 2.2267646119450655E+00
endloop
endfacet
facet normal 3.2457048913627506E-01 9.2477260208587486E-01 1.9861931430039537E-01
outer loop
vertex 2.7950727883538637E+00 3.1922359089212393E+00 2.4927211646136618E+00
vertex 2.7855626326963914E+00 3.2512384996461430E+00 2.2335456475583868E+00
vertex 2.4726924305333755E+00 3.3625039923347173E+00 2.2267646119450655E+00
endloop
endfacet
facet normal 3.3285477153007670E-01 9.4029490105152957E-01 7.1085864460908310E-02
outer loop
vertex 2.4726924305333755E+00 3.3625039923347173E+00 2.2267646119450655E+00
vertex 2.7855626326963914E+00 3.2512384996461430E+00 2.2335456475583868E+00
vertex 2.4705882352941173E+00 3.3803921568627451E+00 2.0000000000000000E+00
endloop
endfacet
facet normal 3.3389454423785703E-01 9.4004156300812103E-01 6.9543462276783999E-02
outer loop
vertex 2.7855626326963914E+00 3.2512384996461430E+00 2.2335456475583868E+00
vertex 2.7826086956521743E+00 3.2695652173913041E+00 2.0000000000000000E+00
vertex 2.4705882352941173E+00 3.3803921568627451E+00 2.0000000000000000E+00
endloop
endfacet
facet normal 3.3385904106239250E-01 9.3994160791412074E-01 -7.1048676361472926E-02
outer loop
vertex 2.4705882352941173E+00 3.3803921568627451E+00 2.0000000000000000E+00
vertex 2.7826086956521743E+00 3.2695652173913041E+00 2.0000000000000000E+00
vertex 2.4726924305333755E+00 3.3625039923347173E+00 1.7732353880549343E+00
endloop
endfacet
facet normal 3.3291922019763459E-01 9.4038451668289835E-01 -6.9582710539835349E-02
outer loop
vertex 2.7826086956521743E+00 3.2695652173913041E+00 2.0000000000000000E+00
vertex 2.7855626326963914E+00 3.2512384996461430E+00 1.7664543524416136E+00
vertex 2.4726924305333755E+00 3.3625039923347173E+00 1.7732353880549343E+00
endloop
endfacet
facet normal 3.2423160444113996E-01 9.2405475114854807E-01 -2.0247637778595118E-01
outer loop
vertex 2.4726924305333755E+00 3.3625039923347173E+00 1.7732353880549343E+00
vertex 2.7855626326963914E+00 3.2512384996461430E+00 1.7664543524416136E+00
vertex 2.4794867465811241E+00 3.3047442174573689E+00 1.5205132534188757E+00
endloop
endfacet
facet normal 3.2167961937776396E-01 9.2571338531802139E-01 -1.9893956549672409E-01
outer loop
vertex 2.7855626326963914E+00 3.2512384996461430E+00 1.7664543524416136E+00
vertex 2.7950727883538637E+00 3.1922359089212393E+00 1.5072788353863384E+00
vertex 2.4794867465811241E+00 3.3047442174573689E+00 1.5205132534188757E+00
endloop
endfacet
facet normal 3.0799451936619032E-01 9.0015484894587816E-01 -3.0799451936619338E-01
outer loop
vertex 2.4794867465811241E+00 3.3047442174573689E+00 1.5205132534188757E+00
vertex 2.7950727883538637E+00 3.1922359089212393E+00 1.5072788353863384E+00
vertex 2.4927211646136613E+00 3.1922359089212384E+00 1.2049272116461365E+00
endloop
endfacet
facet normal 3.0395428551301157E-01 9.0289732784882437E-01 -3.0395428551301462E-01
outer loop
vertex 2.7950727883538637E+00 3.1922359089212393E+00 1.5072788353863384E+00
vertex 2.8134757600657356E+00 3.0780608052588327E+00 1.1865242399342644E+00
vertex 2.4927211646136613E+00 3.1922359089212384E+00 1.2049272116461365E+00
endloop
endfacet
facet normal 2.9006649422431841E-01 8.7673108102704589E-01 -3.8367178745584224E-01
outer loop
vertex 2.4927211646136613E+00 3.1922359089212384E+00 1.2049272116461365E+00
vertex 2.8134757600657356E+00 3.0780608052588327E+00 1.1865242399342644E+00
vertex 2.5167506021458288E+00 2.9879570834245670E+00 7.5629516093715765E-01
endloop
endfacet
facet normal 2.8434805767543009E-01 8.8001695921254020E-01 -3.8041600070781023E-01
outer loop
vertex 2.8134757600657356E+00 3.0780608052588327E+00 1.1865242399342644E+00
vertex 2.8464849354375903E+00 2.8732663797226206E+00 7.3744619799139155E-01
vertex 2.5167506021458288E+00 2.9879570834245670E+00 7.5629516093715765E-01
endloop
endfacet
facet normal 2.7390912740260120E-01 8.5867717333691118E-01 -4.3318275810064039E-01
outer loop
vertex 2.5167506021458288E+00 2.9879570834245670E+00 7.5629516093715765E-01
vertex 2.8464849354375903E+00 2.8732663797226206E+00 7.3744619799139155E-01
vertex 2.5633802816901405E+00 2.5915492957746480E+00 0.0000000000000000E+00
endloop
endfacet
facet normal 2.6605440439469102E-01 8.6201627023879934E-01 -4.3144293220051161E-01
outer loop
vertex 2.8464849354375903E+00 2.8732663797226206E+00 7.3744619799139155E-01
vertex 2.9090909090909092E+00 2.4848484848484849E+00 0.0000000000000000E+00
vertex 2.5633802816901405E+00 2.5915492957746480E+00 0.0000000000000000E+00
endloop
endfacet
facet normal 3.3946512463516598E-01 8.4381330980741187E-01 4.1562305921145920E-01
outer loop
vertex 2.9090909090909092E+00 2.4848484848484849E+00 4.0000000000000000E+00
vertex 3.3559322033898300E+00 2.3050847457627119E+00 4.0000000000000000E+00
vertex 2.8464849354375898E+00 2.8732663797226206E+00 3.2625538020086080E+00
endloop
endfacet
facet normal 3.4781369102533977E-01 8.4339195521788790E-01 4.0953100762833278E-01
outer loop
vertex 3.3559322033898300E+00 2.3050847457627119E+00 4.0000000000000000E+00
vertex 3.2956354652758710E+00 2.6719736480922314E+00 3.2956354652758724E+00
vertex 2.8464849354375898E+00 2.8732663797226206E+00 3.2625538020086080E+00
endloop
endfacet
facet normal 3.5812724862484530E-01 8.5916598469456407E-01 3.6548417822967172E-01
outer loop
vertex 2.8464849354375898E+00 2.8732663797226206E+00 3.2625538020086080E+00
vertex 3.2956354652758710E+00 2.6719736480922314E+00 3.2956354652758724E+00
vertex 2.8134757600657356E+00 3.0780608052588336E+00 2.8134757600657352E+00
endloop
endfacet
facet normal 3.6548417822967227E-01 8.5916598469456396E-01 3.5812724862484480E-01
outer loop
vertex 3.2956354652758710E+00 2.6719736480922314E+00 3.2956354652758724E+00
vertex 3.2625538020086085E+00 2.8732663797226201E+00 2.8464849354375898E+00
vertex 2.8134757600657356E+00 3.0780608052588336E+00 2.8134757600657352E+00
endloop
endfacet
facet normal 3.7919405667503064E-01 8.7839609775825278E-01 2.9091607522687302E-01
outer loop
vertex 2.8134757600657356E+00 3.0780608052588336E+00 2.8134757600657352E+00
vertex 3.2625538020086085E+00 2.8732663797226201E+00 2.8464849354375898E+00
vertex 2.7950727883538637E+00 3.1922359089212393E+00 2.4927211646136618E+00
endloop
endfacet
facet normal 3.8477454883848644E-01 8.7838416082101511E-01 2.8353097288462176E-01
outer loop
vertex 3.2625538020086085E+00 2.8732663797226201E+00 2.8464849354375898E+00
vertex 3.2437048390628416E+00 2.9879570834245666E+00 2.5167506021458288E+00
vertex 2.7950727883538637E+00 3.1922359089212393E+00 2.4927211646136618E+00
endloop
endfacet
facet normal 3.9844532994761861E-01 8.9736660262536994E-01 1.8966944808148370E-01
outer loop
vertex 2.7950727883538637E+00 3.1922359089212393E+00 2.4927211646136618E+00
vertex 3.2437048390628416E+00 2.9879570834245666E+00 2.5167506021458288E+00
vertex 2.7855626326963914E+00 3.2512384996461430E+00 2.2335456475583868E+00
endloop
endfacet
facet normal 4.0174147885819078E-01 8.9706558058869823E-01 1.8405740487113079E-01
outer loop
vertex 3.2437048390628416E+00 2.9879570834245666E+00 2.5167506021458288E+00
vertex 3.2338474364318466E+00 3.0479366402667769E+00 2.2459358065860773E+00
vertex 2.7855626326963914E+00 3.2512384996461430E+00 2.2335456475583868E+00
endloop
endfacet
facet normal 4.1059897656715844E-01 9.0941192396922466E-01 6.6169728612069864E-02
outer loop
vertex 2.7855626326963914E+00 3.2512384996461430E+00 2.2335456475583868E+00
vertex 3.2338474364318466E+00 3.0479366402667769E+00 2.2459358065860773E+00
vertex 2.7826086956521743E+00 3.2695652173913041E+00 2.0000000000000000E+00
endloop
endfacet
facet normal 4.1158880517145036E-01 9.0911373449957444E-01 6.4084890588774507E-02
outer loop
vertex 3.2338474364318466E+00 3.0479366402667769E+00 2.2459358065860773E+00
vertex 3.2307692307692308E+00 3.0666666666666660E+00 2.0000000000000000E+00
vertex 2.7826086956521743E+00 3.2695652173913041E+00 2.0000000000000000E+00
endloop
endfacet
facet normal 4.1153390865136336E-01 9.0899247954861306E-01 -6.6124988878604934E-02
outer loop
vertex 2.7826086956521743E+00 3.2695652173913041E+00 2.0000000000000000E+00
vertex 3.2307692307692308E+00 3.0666666666666660E+00 2.0000000000000000E+00
vertex 2.7855626326963914E+00 3.2512384996461430E+00 1.7664543524416136E+00
endloop
endfacet
facet normal 4.1070095354051600E-01 9.0951225254672019E-01 -6.4126353617697848E-02
outer loop
vertex 3.2307692307692308E+00 3.0666666666666660E+00 2.0000000000000000E+00
vertex 3.2338474364318466E+00 3.0479366402667769E+00 1.7540641934139225E+00
vertex 2.7855626326963914E+00 3.2512384996461430E+00 1.7664543524416136E+00
endloop
endfacet
facet normal 4.0120906239648907E-01 8.9621140713705583E-01 -1.8930505003393000E-01
outer loop
vertex 2.7855626326963914E+00 3.2512384996461430E+00 1.7664543524416136E+00
vertex 3.2338474364318466E+00 3.0479366402667769E+00 1.7540641934139225E+00
vertex 2.7950727883538637E+00 3.1922359089212393E+00 1.5072788353863384E+00
endloop
endfacet
facet normal 3.9909592363567015E-01 8.9817551633758752E-01 -1.8439952708480450E-01
outer loop
vertex 3.2338474364318466E+00 3.0479366402667769E+00 1.7540641934139225E+00
vertex 3.2437048390628420E+00 2.9879570834245666E+00 1.4832493978541712E+00
vertex 2.7950727883538637E+00 3.1922359089212393E+00 1.5072788353863384E+00
endloop
endfacet
facet normal 3.8367178745584446E-01 8.7673108102704400E-01 -2.9006649422432051E-01
outer loop
vertex 2.7950727883538637E+00 3.1922359089212393E+00 1.5072788353863384E+00
vertex 3.2437048390628420E+00 2.9879570834245666E+00 1.4832493978541712E+00
vertex 2.8134757600657356E+00 3.0780608052588327E+00 1.1865242399342644E+00
endloop
endfacet
facet normal 3.8041600070781123E-01 8.8001695921253975E-01 -2.8434805767542998E-01
outer loop
vertex 3.2437048390628420E+00 2.9879570834245666E+00 1.4832493978541712E+00
vertex 3.2625538020086085E+00 2.8732663797226201E+00 1.1535150645624102E+00
vertex 2.8134757600657356E+00 3.0780608052588327E+00 1.1865242399342644E+00
endloop
endfacet
facet normal 3.6414611091351906E-01 8.5720197142395738E-01 -3.6414611091351767E-01
outer loop
vertex 2.8134757600657356E+00 3.0780608052588327E+00 1.1865242399342644E+00
vertex 3.2625538020086085E+00 2.8732663797226201E+00 1.1535150645624102E+00
vertex 2.8464849354375903E+00 2.8732663797226206E+00 7.3744619799139155E-01
endloop
endfacet
facet normal 3.5945966511657346E-01 8.6114894083925020E-01 -3.5945966511657224E-01
outer loop
vertex 3.2625538020086085E+00 2.8732663797226201E+00 1.1535150645624102E+00
vertex 3.2956354652758706E+00 2.6719736480922309E+00 7.0436453472412819E-01
vertex 2.8464849354375903E+00 2.8732663797226206E+00 7.3744619799139155E-01
endloop
endfacet
facet normal 3.4673575430448128E-01 8.4170388937264706E-01 -4.1389476839150913E-01
outer loop
vertex 2.8464849354375903E+00 2.8732663797226206E+00 7.3744619799139155E-01
vertex 3.2956354652758706E+00 2.6719736480922309E+00 7.0436453472412819E-01
vertex 2.9090909090909092E+00 2.4848484848484849E+00 0.0000000000000000E+00
endloop
endfacet
facet normal 3.4019065447657432E-01 8.4561676969891220E-01 -4.1134243327278658E-01
outer loop
vertex 3.2956354652758706E+00 2.6719736480922309E+00 7.0436453472412819E-01
vertex 3.3559322033898300E+00 2.3050847457627119E+00 0.0000000000000000E+00
vertex 2.9090909090909092E+00 2.4848484848484849E+00 0.0000000000000000E+00
endloop
endfacet
facet normal 3.9268423233019967E-01 8.2900004603042199E-01 3.9819344213685898E-01
outer loop
vertex 3.3559322033898300E+00 2.3050847457627119E+00 4.0000000000000000E+00
vertex 4.0000000000000000E+00 2.0000000000000000E+00 4.0000000000000000E+00
vertex 3.2956354652758710E+00 2.6719736480922314E+00 3.2956354652758724E+00
endloop
endfacet
facet normal 3.9819344213685903E-01 8.2900004603042199E-01 3.9268423233019967E-01
outer loop
vertex 4.0000000000000000E+00 2.0000000000000000E+00 4.0000000000000000E+00
vertex 4.0000000000000000E+00 2.3050847457627119E+00 3.3559322033898300E+00
vertex 3.2956354652758710E+00 2.6719736480922314E+00 3.2956354652758724E+00
endloop
endfacet
facet normal 4.0953100762833272E-01 8.4339195521788790E-01 3.4781369102533943E-01
outer loop
vertex 3.2956354652758710E+00 2.6719736480922314E+00 3.2956354652758724E+00
vertex 4.0000000000000000E+00 2.3050847457627119E+00 3.3559322033898300E+00
vertex 3.2625538020086085E+00 2.8732663797226201E+00 2.8464849354375898E+00
endloop
endfacet
facet normal 4.1562305921145981E-01 8.4381330980741198E-01 3.3946512463516487E-01
outer loop
vertex 4.0000000000000000E+00 2.3050847457627119E+00 3.3559322033898300E+00
vertex 4.0000000000000000E+00 2.4848484848484844E+00 2.9090909090909087E+00
vertex 3.2625538020086085E+00 2.8732663797226201E+00 2.8464849354375898E+00
endloop
endfacet
facet normal 4.2974497263530920E-01 8.6017418465688023E-01 2.7462634714198175E-01
outer loop
vertex 3.2625538020086085E+00 2.8732663797226201E+00 2.8464849354375898E+00
vertex 4.0000000000000000E+00 2.4848484848484844E+00 2.9090909090909087E+00
vertex 3.2437048390628416E+00 2.9879570834245666E+00 2.5167506021458288E+00
endloop
endfacet
facet normal 4.3466910738145609E-01 8.6053521029550317E-01 2.6559728712824310E-01
outer loop
vertex 4.0000000000000000E+00 2.4848484848484844E+00 2.9090909090909087E+00
vertex 4.0000000000000000E+00 2.5915492957746480E+00 2.5633802816901405E+00
vertex 3.2437048390628416E+00 2.9879570834245666E+00 2.5167506021458288E+00
endloop
endfacet
facet normal 4.4823189804529018E-01 8.7607374211897648E-01 1.7771596423610744E-01
outer loop
vertex 3.2437048390628416E+00 2.9879570834245666E+00 2.5167506021458288E+00
vertex 4.0000000000000000E+00 2.5915492957746480E+00 2.5633802816901405E+00
vertex 3.2338474364318466E+00 3.0479366402667769E+00 2.2459358065860773E+00
endloop
endfacet
facet normal 4.5111529599126021E-01 8.7599878406820952E-01 1.7064911377952127E-01
outer loop
vertex 4.0000000000000000E+00 2.5915492957746480E+00 2.5633802816901405E+00
vertex 4.0000000000000000E+00 2.6486486486486487E+00 2.2702702702702702E+00
vertex 3.2338474364318466E+00 3.0479366402667769E+00 2.2459358065860773E+00
endloop
endfacet
facet normal 4.5973904308846913E-01 8.8590704352278726E-01 6.1714848268573576E-02
outer loop
vertex 3.2338474364318466E+00 3.0479366402667769E+00 2.2459358065860773E+00
vertex 4.0000000000000000E+00 2.6486486486486487E+00 2.2702702702702702E+00
vertex 3.2307692307692308E+00 3.0666666666666660E+00 2.0000000000000000E+00
endloop
endfacet
facet normal 4.6054783575916536E-01 8.8566891492147304E-01 5.9044594328097617E-02
outer loop
vertex 4.0000000000000000E+00 2.6486486486486487E+00 2.2702702702702702E+00
vertex 4.0000000000000000E+00 2.6666666666666665E+00 2.0000000000000000E+00
vertex 3.2307692307692308E+00 3.0666666666666660E+00 2.0000000000000000E+00
endloop
endfacet
facet normal 4.6047440257030564E-01 8.8552769725058889E-01 -6.1676753964437524E-02
outer loop
vertex 3.2307692307692308E+00 3.0666666666666660E+00 2.0000000000000000E+00
vertex 4.0000000000000000E+00 2.6666666666666665E+00 2.0000000000000000E+00
vertex 3.2338474364318466E+00 3.0479366402667769E+00 1.7540641934139225E+00
endloop
endfacet
facet normal 4.5987924300584293E-01 8.8601472604270570E-01 -5.9067648402846465E-02
outer loop
vertex 4.0000000000000000E+00 2.6666666666666665E+00 2.0000000000000000E+00
vertex 4.0000000000000000E+00 2.6486486486486487E+00 1.7297297297297298E+00
vertex 3.2338474364318466E+00 3.0479366402667769E+00 1.7540641934139225E+00
endloop
endfacet
facet normal 4.5039426703641461E-01 8.7502703744668398E-01 -1.7740543384578145E-01
outer loop
vertex 3.2338474364318466E+00 3.0479366402667769E+00 1.7540641934139225E+00
vertex 4.0000000000000000E+00 2.6486486486486487E+00 1.7297297297297298E+00
vertex 3.2437048390628420E+00 2.9879570834245666E+00 1.4832493978541712E+00
endloop
endfacet
facet normal 4.4913109740066465E-01 8.7698051776343411E-01 -1.7084036060326618E-01
outer loop
vertex 4.0000000000000000E+00 2.6486486486486487E+00 1.7297297297297298E+00
vertex 4.0000000000000000E+00 2.5915492957746480E+00 1.4366197183098592E+00
vertex 3.2437048390628420E+00 2.9879570834245666E+00 1.4832493978541712E+00
endloop
endfacet
facet normal 4.3318275810063972E-01 8.5867717333691140E-01 -2.7390912740260126E-01
outer loop
vertex 3.2437048390628420E+00 2.9879570834245666E+00 1.4832493978541712E+00
vertex 4.0000000000000000E+00 2.5915492957746480E+00 1.4366197183098592E+00
vertex 3.2625538020086085E+00 2.8732663797226201E+00 1.1535150645624102E+00
endloop
endfacet
facet normal 4.3144293220051111E-01 8.6201627023879968E-01 -2.6605440439469136E-01
outer loop
vertex 4.0000000000000000E+00 2.5915492957746480E+00 1.4366197183098592E+00
vertex 4.0000000000000000E+00 2.4848484848484849E+00 1.0909090909090908E+00
vertex 3.2625538020086085E+00 2.8732663797226201E+00 1.1535150645624102E+00
endloop
endfacet
facet normal 4.1389476839150868E-01 8.4170388937264751E-01 -3.4673575430448056E-01
outer loop
vertex 3.2625538020086085E+00 2.8732663797226201E+00 1.1535150645624102E+00
vertex 4.0000000000000000E+00 2.4848484848484849E+00 1.0909090909090908E+00
vertex 3.2956354652758706E+00 2.6719736480922309E+00 7.0436453472412819E-01
endloop
endfacet
facet normal 4.1134243327278630E-01 8.4561676969891253E-01 -3.4019065447657376E-01
outer loop
vertex 4.0000000000000000E+00 2.4848484848484849E+00 1.0909090909090908E+00
vertex 4.0000000000000000E+00 2.3050847457627119E+00 6.4406779661016922E-01
vertex 3.2956354652758706E+00 2.6719736480922309E+00 7.0436453472412819E-01
endloop
endfacet
facet normal 3.9703201337446931E-01 8.2748484017027768E-01 -3.9703201337446975E-01
outer loop
vertex 3.2956354652758706E+00 2.6719736480922309E+00 7.0436453472412819E-01
vertex 4.0000000000000000E+00 2.3050847457627119E+00 6.4406779661016922E-01
vertex 3.3559322033898300E+00 2.3050847457627119E+00 0.0000000000000000E+00
endloop
endfacet
facet normal 3.9354252250196325E-01 8.3081199194858957E-01 -3.9354252250196370E-01
outer loop
vertex 4.0000000000000000E+00 2.3050847457627119E+00 6.4406779661016922E-01
vertex 4.0000000000000000E+00 2.0000000000000000E+00 0.0000000000000000E+00
vertex 3.3559322033898300E+00 2.3050847457627119E+00 0.0000000000000000E+00
endloop
endfacet
endsolid Created by writeSTL.m 14-Nov-2018 10:57:12
